<?xml version="1.0" encoding="UTF-8" standalone="no"?>
<!DOCTYPE svg PUBLIC "-//W3C//DTD SVG 1.1//EN"
 "http://www.w3.org/Graphics/SVG/1.1/DTD/svg11.dtd">
<!-- Generated by graphviz version 2.43.0 (0)
 -->
<!-- Title: config_autogen.h Pages: 1 -->
<svg width="302pt" height="126pt"
 viewBox="0.00 0.00 302.00 126.00" xmlns="http://www.w3.org/2000/svg" xmlns:xlink="http://www.w3.org/1999/xlink">
<g id="graph0" class="graph" transform="scale(1 1) rotate(0) translate(4 122)">
<title>config_autogen.h</title>
<!-- Node1 -->
<g id="Node000001" class="node">
<title>Node1</title>
<g id="a_Node000001"><a xlink:title=" ">
<polygon fill="#999999" stroke="#666666" points="200.5,-118 99.5,-118 99.5,-99 200.5,-99 200.5,-118"/>
<text text-anchor="middle" x="150" y="-106" font-family="Helvetica,sans-Serif" font-size="10.00">config_autogen.h</text>
</a>
</g>
</g>
<!-- Node2 -->
<g id="Node000002" class="node">
<title>Node2</title>
<g id="a_Node000002"><a xlink:title=" ">
<polygon fill="#e0e0e0" stroke="#999999" points="144,-57.5 0,-57.5 0,-5.5 144,-5.5 144,-57.5"/>
<text text-anchor="start" x="8" y="-45.5" font-family="Helvetica,sans-Serif" font-size="10.00">/home/carlosdelfino</text>
<text text-anchor="start" x="8" y="-34.5" font-family="Helvetica,sans-Serif" font-size="10.00">/.pico&#45;sdk/sdk/2.1.0</text>
<text text-anchor="start" x="8" y="-23.5" font-family="Helvetica,sans-Serif" font-size="10.00">/src/boards/include/boards</text>
<text text-anchor="middle" x="72" y="-12.5" font-family="Helvetica,sans-Serif" font-size="10.00">/pico_w.h</text>
</a>
</g>
</g>
<!-- Node1&#45;&gt;Node2 -->
<g id="edge1_Node000001_Node000002" class="edge">
<title>Node1&#45;&gt;Node2</title>
<g id="a_edge1_Node000001_Node000002"><a xlink:title=" ">
<path fill="none" stroke="#63b8ff" d="M141.05,-98.9C132.36,-90.53 118.6,-77.31 105.65,-64.85"/>
<polygon fill="#63b8ff" stroke="#63b8ff" points="107.79,-62.06 98.16,-57.65 102.94,-67.1 107.79,-62.06"/>
</a>
</g>
</g>
<!-- Node3 -->
<g id="Node000003" class="node">
<title>Node3</title>
<g id="a_Node000003"><a xlink:title=" ">
<polygon fill="#e0e0e0" stroke="#999999" points="294,-63 162,-63 162,0 294,0 294,-63"/>
<text text-anchor="start" x="170" y="-51" font-family="Helvetica,sans-Serif" font-size="10.00">/home/carlosdelfino</text>
<text text-anchor="start" x="170" y="-40" font-family="Helvetica,sans-Serif" font-size="10.00">/.pico&#45;sdk/sdk/2.1.0</text>
<text text-anchor="start" x="170" y="-29" font-family="Helvetica,sans-Serif" font-size="10.00">/src/rp2_common/cmsis</text>
<text text-anchor="start" x="170" y="-18" font-family="Helvetica,sans-Serif" font-size="10.00">/include/cmsis/rename</text>
<text text-anchor="middle" x="228" y="-7" font-family="Helvetica,sans-Serif" font-size="10.00">_exceptions.h</text>
</a>
</g>
</g>
<!-- Node1&#45;&gt;Node3 -->
<g id="edge2_Node000001_Node000003" class="edge">
<title>Node1&#45;&gt;Node3</title>
<g id="a_edge2_Node000001_Node000003"><a xlink:title=" ">
<path fill="none" stroke="#63b8ff" d="M158.95,-98.9C166.43,-91.7 177.66,-80.9 188.9,-70.09"/>
<polygon fill="#63b8ff" stroke="#63b8ff" points="191.47,-72.48 196.25,-63.03 186.62,-67.43 191.47,-72.48"/>
</a>
</g>
</g>
</g>
</svg>
