<?xml version="1.0" encoding="UTF-8" standalone="no"?>
<!DOCTYPE svg PUBLIC "-//W3C//DTD SVG 1.1//EN"
 "http://www.w3.org/Graphics/SVG/1.1/DTD/svg11.dtd">
<!-- Generated by graphviz version 2.43.0 (0)
 -->
<!-- Title: pico_sdk_stubs.h Pages: 1 -->
<svg width="506pt" height="137pt"
 viewBox="0.00 0.00 506.00 137.00" xmlns="http://www.w3.org/2000/svg" xmlns:xlink="http://www.w3.org/1999/xlink">
<g id="graph0" class="graph" transform="scale(1 1) rotate(0) translate(4 133)">
<title>pico_sdk_stubs.h</title>
<!-- Node1 -->
<g id="Node000001" class="node">
<title>Node1</title>
<g id="a_Node000001"><a xlink:title=" ">
<polygon fill="#999999" stroke="#666666" points="283.5,-129 183.5,-129 183.5,-110 283.5,-110 283.5,-129"/>
<text text-anchor="middle" x="233.5" y="-117" font-family="Helvetica,sans-Serif" font-size="10.00">pico_sdk_stubs.h</text>
</a>
</g>
</g>
<!-- Node2 -->
<g id="Node000002" class="node">
<title>Node2</title>
<g id="a_Node000002"><a xlink:href="gpio_8h.html" target="_top" xlink:title=" ">
<polygon fill="white" stroke="#666666" points="47,-74 0,-74 0,-55 47,-55 47,-74"/>
<text text-anchor="middle" x="23.5" y="-62" font-family="Helvetica,sans-Serif" font-size="10.00">gpio.h</text>
</a>
</g>
</g>
<!-- Node1&#45;&gt;Node2 -->
<g id="edge1_Node000001_Node000002" class="edge">
<title>Node1&#45;&gt;Node2</title>
<g id="a_edge1_Node000001_Node000002"><a xlink:title=" ">
<path fill="none" stroke="#63b8ff" d="M189.1,-107.41C153.29,-98.45 101.64,-85.49 56.5,-74 53.52,-73.24 50.39,-72.44 47.29,-71.64"/>
<polygon fill="#63b8ff" stroke="#63b8ff" points="188.67,-110.91 199.22,-109.94 190.37,-104.12 188.67,-110.91"/>
</a>
</g>
</g>
<!-- Node3 -->
<g id="Node000003" class="node">
<title>Node3</title>
<g id="a_Node000003"><a xlink:href="i2c_8h.html" target="_top" xlink:title=" ">
<polygon fill="white" stroke="#666666" points="105.5,-74 65.5,-74 65.5,-55 105.5,-55 105.5,-74"/>
<text text-anchor="middle" x="85.5" y="-62" font-family="Helvetica,sans-Serif" font-size="10.00">i2c.h</text>
</a>
</g>
</g>
<!-- Node1&#45;&gt;Node3 -->
<g id="edge2_Node000001_Node000003" class="edge">
<title>Node1&#45;&gt;Node3</title>
<g id="a_edge2_Node000001_Node000003"><a xlink:title=" ">
<path fill="none" stroke="#63b8ff" d="M200.03,-106.51C171.08,-96.15 130.17,-81.5 105.88,-72.8"/>
<polygon fill="#63b8ff" stroke="#63b8ff" points="199.13,-109.91 209.72,-109.98 201.49,-103.32 199.13,-109.91"/>
</a>
</g>
</g>
<!-- Node4 -->
<g id="Node000004" class="node">
<title>Node4</title>
<g id="a_Node000004"><a xlink:href="pico__sdk__mocks_8cpp.html" target="_top" xlink:title=" ">
<polygon fill="white" stroke="#666666" points="241,-74 124,-74 124,-55 241,-55 241,-74"/>
<text text-anchor="middle" x="182.5" y="-62" font-family="Helvetica,sans-Serif" font-size="10.00">pico_sdk_mocks.cpp</text>
</a>
</g>
</g>
<!-- Node1&#45;&gt;Node4 -->
<g id="edge3_Node000001_Node000004" class="edge">
<title>Node1&#45;&gt;Node4</title>
<g id="a_edge3_Node000001_Node000004"><a xlink:title=" ">
<path fill="none" stroke="#63b8ff" d="M218.12,-102.52C209.13,-93.18 198.14,-81.75 190.76,-74.09"/>
<polygon fill="#63b8ff" stroke="#63b8ff" points="215.62,-104.97 225.08,-109.75 220.67,-100.12 215.62,-104.97"/>
</a>
</g>
</g>
<!-- Node5 -->
<g id="Node000005" class="node">
<title>Node5</title>
<g id="a_Node000005"><a xlink:href="stdlib_8h.html" target="_top" xlink:title=" ">
<polygon fill="white" stroke="#666666" points="312,-74 259,-74 259,-55 312,-55 312,-74"/>
<text text-anchor="middle" x="285.5" y="-62" font-family="Helvetica,sans-Serif" font-size="10.00">stdlib.h</text>
</a>
</g>
</g>
<!-- Node1&#45;&gt;Node5 -->
<g id="edge4_Node000001_Node000005" class="edge">
<title>Node1&#45;&gt;Node5</title>
<g id="a_edge4_Node000001_Node000005"><a xlink:title=" ">
<path fill="none" stroke="#63b8ff" d="M249.18,-102.52C258.34,-93.18 269.55,-81.75 277.07,-74.09"/>
<polygon fill="#63b8ff" stroke="#63b8ff" points="246.59,-100.16 242.09,-109.75 251.59,-105.06 246.59,-100.16"/>
</a>
</g>
</g>
<!-- Node7 -->
<g id="Node000007" class="node">
<title>Node7</title>
<g id="a_Node000007"><a xlink:href="test__main_8cpp.html" target="_top" xlink:title=" ">
<polygon fill="white" stroke="#666666" points="416.5,-74 330.5,-74 330.5,-55 416.5,-55 416.5,-74"/>
<text text-anchor="middle" x="373.5" y="-62" font-family="Helvetica,sans-Serif" font-size="10.00">test_main.cpp</text>
</a>
</g>
</g>
<!-- Node1&#45;&gt;Node7 -->
<g id="edge6_Node000001_Node000007" class="edge">
<title>Node1&#45;&gt;Node7</title>
<g id="a_edge6_Node000001_Node000007"><a xlink:title=" ">
<path fill="none" stroke="#63b8ff" d="M265.41,-106.42C291.38,-96.59 327.42,-82.95 350.6,-74.17"/>
<polygon fill="#63b8ff" stroke="#63b8ff" points="264.11,-103.17 255.99,-109.98 266.58,-109.72 264.11,-103.17"/>
</a>
</g>
</g>
<!-- Node8 -->
<g id="Node000008" class="node">
<title>Node8</title>
<g id="a_Node000008"><a xlink:href="time_8h.html" target="_top" xlink:title=" ">
<polygon fill="white" stroke="#666666" points="482.5,-74 434.5,-74 434.5,-55 482.5,-55 482.5,-74"/>
<text text-anchor="middle" x="458.5" y="-62" font-family="Helvetica,sans-Serif" font-size="10.00">time.h</text>
</a>
</g>
</g>
<!-- Node1&#45;&gt;Node8 -->
<g id="edge7_Node000001_Node000008" class="edge">
<title>Node1&#45;&gt;Node8</title>
<g id="a_edge7_Node000001_Node000008"><a xlink:title=" ">
<path fill="none" stroke="#63b8ff" d="M281.44,-107.73C320.33,-98.91 376.53,-85.98 425.5,-74 428.37,-73.3 431.38,-72.54 434.37,-71.79"/>
<polygon fill="#63b8ff" stroke="#63b8ff" points="280.43,-104.37 271.45,-109.99 281.98,-111.2 280.43,-104.37"/>
</a>
</g>
</g>
<!-- Node6 -->
<g id="Node000006" class="node">
<title>Node6</title>
<g id="a_Node000006"><a xlink:href="main_8cpp.html" target="_top" xlink:title=" ">
<polygon fill="white" stroke="#666666" points="316.5,-19 254.5,-19 254.5,0 316.5,0 316.5,-19"/>
<text text-anchor="middle" x="285.5" y="-7" font-family="Helvetica,sans-Serif" font-size="10.00">main.cpp</text>
</a>
</g>
</g>
<!-- Node5&#45;&gt;Node6 -->
<g id="edge5_Node000005_Node000006" class="edge">
<title>Node5&#45;&gt;Node6</title>
<g id="a_edge5_Node000005_Node000006"><a xlink:title=" ">
<path fill="none" stroke="#63b8ff" d="M285.5,-44.66C285.5,-35.93 285.5,-25.99 285.5,-19.09"/>
<polygon fill="#63b8ff" stroke="#63b8ff" points="282,-44.75 285.5,-54.75 289,-44.75 282,-44.75"/>
</a>
</g>
</g>
<!-- Node9 -->
<g id="Node000009" class="node">
<title>Node9</title>
<g id="a_Node000009"><a xlink:href="VL53L0X_8cpp.html" target="_top" xlink:title="Implementação da classe VL53L0X para RP2040.">
<polygon fill="white" stroke="#666666" points="498,-19 419,-19 419,0 498,0 498,-19"/>
<text text-anchor="middle" x="458.5" y="-7" font-family="Helvetica,sans-Serif" font-size="10.00">VL53L0X.cpp</text>
</a>
</g>
</g>
<!-- Node8&#45;&gt;Node9 -->
<g id="edge8_Node000008_Node000009" class="edge">
<title>Node8&#45;&gt;Node9</title>
<g id="a_edge8_Node000008_Node000009"><a xlink:title=" ">
<path fill="none" stroke="#63b8ff" d="M458.5,-44.66C458.5,-35.93 458.5,-25.99 458.5,-19.09"/>
<polygon fill="#63b8ff" stroke="#63b8ff" points="455,-44.75 458.5,-54.75 462,-44.75 455,-44.75"/>
</a>
</g>
</g>
</g>
</svg>
