<?xml version="1.0" encoding="UTF-8" standalone="no"?>
<!DOCTYPE svg PUBLIC "-//W3C//DTD SVG 1.1//EN"
 "http://www.w3.org/Graphics/SVG/1.1/DTD/svg11.dtd">
<!-- Generated by graphviz version 2.43.0 (0)
 -->
<!-- Title: VL53L0X.h Pages: 1 -->
<svg width="271pt" height="82pt"
 viewBox="0.00 0.00 270.50 82.00" xmlns="http://www.w3.org/2000/svg" xmlns:xlink="http://www.w3.org/1999/xlink">
<g id="graph0" class="graph" transform="scale(1 1) rotate(0) translate(4 78)">
<title>VL53L0X.h</title>
<!-- Node1 -->
<g id="Node000001" class="node">
<title>Node1</title>
<g id="a_Node000001"><a xlink:title="Interface C++ para o sensor de distância VL53L0X (Time&#45;of&#45;Flight) no RP2040.">
<polygon fill="#999999" stroke="#666666" points="161.5,-74 93.5,-74 93.5,-55 161.5,-55 161.5,-74"/>
<text text-anchor="middle" x="127.5" y="-62" font-family="Helvetica,sans-Serif" font-size="10.00">VL53L0X.h</text>
</a>
</g>
</g>
<!-- Node2 -->
<g id="Node000002" class="node">
<title>Node2</title>
<g id="a_Node000002"><a xlink:href="VL53L0X_8cpp.html" target="_top" xlink:title="Implementação da classe VL53L0X para RP2040.">
<polygon fill="white" stroke="#666666" points="79,-19 0,-19 0,0 79,0 79,-19"/>
<text text-anchor="middle" x="39.5" y="-7" font-family="Helvetica,sans-Serif" font-size="10.00">VL53L0X.cpp</text>
</a>
</g>
</g>
<!-- Node1&#45;&gt;Node2 -->
<g id="edge1_Node000001_Node000002" class="edge">
<title>Node1&#45;&gt;Node2</title>
<g id="a_edge1_Node000001_Node000002"><a xlink:title=" ">
<path fill="none" stroke="#63b8ff" d="M104.58,-49.7C88.55,-40.04 67.63,-27.44 53.9,-19.17"/>
<polygon fill="#63b8ff" stroke="#63b8ff" points="102.99,-52.82 113.36,-54.98 106.6,-46.83 102.99,-52.82"/>
</a>
</g>
</g>
<!-- Node3 -->
<g id="Node000003" class="node">
<title>Node3</title>
<g id="a_Node000003"><a xlink:href="main_8cpp.html" target="_top" xlink:title=" ">
<polygon fill="white" stroke="#666666" points="158.5,-19 96.5,-19 96.5,0 158.5,0 158.5,-19"/>
<text text-anchor="middle" x="127.5" y="-7" font-family="Helvetica,sans-Serif" font-size="10.00">main.cpp</text>
</a>
</g>
</g>
<!-- Node1&#45;&gt;Node3 -->
<g id="edge2_Node000001_Node000003" class="edge">
<title>Node1&#45;&gt;Node3</title>
<g id="a_edge2_Node000001_Node000003"><a xlink:title=" ">
<path fill="none" stroke="#63b8ff" d="M127.5,-44.66C127.5,-35.93 127.5,-25.99 127.5,-19.09"/>
<polygon fill="#63b8ff" stroke="#63b8ff" points="124,-44.75 127.5,-54.75 131,-44.75 124,-44.75"/>
</a>
</g>
</g>
<!-- Node4 -->
<g id="Node000004" class="node">
<title>Node4</title>
<g id="a_Node000004"><a xlink:href="test__main_8cpp.html" target="_top" xlink:title=" ">
<polygon fill="white" stroke="#666666" points="262.5,-19 176.5,-19 176.5,0 262.5,0 262.5,-19"/>
<text text-anchor="middle" x="219.5" y="-7" font-family="Helvetica,sans-Serif" font-size="10.00">test_main.cpp</text>
</a>
</g>
</g>
<!-- Node1&#45;&gt;Node4 -->
<g id="edge3_Node000001_Node000004" class="edge">
<title>Node1&#45;&gt;Node4</title>
<g id="a_edge3_Node000001_Node000004"><a xlink:title=" ">
<path fill="none" stroke="#63b8ff" d="M150.99,-49.97C167.81,-40.28 189.95,-27.52 204.45,-19.17"/>
<polygon fill="#63b8ff" stroke="#63b8ff" points="149.2,-46.96 142.28,-54.98 152.69,-53.03 149.2,-46.96"/>
</a>
</g>
</g>
</g>
</svg>
